<?xml version="1.0" standalone="no"?>
<!DOCTYPE svg PUBLIC "-//W3C//DTD SVG 20010904//EN"
 "http://www.w3.org/TR/2001/REC-SVG-20010904/DTD/svg10.dtd">
<svg version="1.0" xmlns="http://www.w3.org/2000/svg"
 width="512.000000pt" height="512.000000pt" viewBox="0 0 512.000000 512.000000"
 preserveAspectRatio="xMidYMid meet">
<metadata>
Created by potrace 1.14, written by Peter Selinger 2001-2017
</metadata>
<g transform="translate(0.000000,512.000000) scale(0.100000,-0.100000)"
fill="#000000" stroke="none">
<path d="M1407 4766 c-63 -31 -88 -55 -122 -118 -85 -156 23 -353 206 -375
l50 -6 -2 -176 -1 -176 -667 0 c-656 -1 -667 -1 -712 -22 -63 -28 -101 -64
-129 -121 -62 -123 -13 -279 108 -345 l47 -26 0 -1513 0 -1513 22 -23 22 -22
2329 0 c2279 0 2330 0 2353 19 l24 19 0 737 0 737 -28 24 c-16 13 -33 22 -38
19 -5 -4 -9 35 -9 95 l0 101 30 10 c16 6 33 20 37 32 4 12 8 303 9 647 1 344
2 628 3 631 0 4 15 12 31 19 78 32 137 120 146 216 10 105 -41 197 -138 249
l-53 28 -670 2 -670 1 -1 177 c-1 127 1 177 10 178 166 11 283 190 227 349
-21 59 -104 142 -158 158 -30 9 -305 12 -1124 12 l-1084 -1 -48 -23z"/>
</g>
</svg>
